<?xml version="1.0" encoding="utf-8"?>
<!-- Generator: Adobe Illustrator 26.0.1, SVG Export Plug-In . SVG Version: 6.00 Build 0)  -->
<svg version="1.1" xmlns="http://www.w3.org/2000/svg" xmlns:xlink="http://www.w3.org/1999/xlink" x="0px" y="0px"
	 viewBox="0 0 131.23 58.55" style="enable-background:new 0 0 131.23 58.55;" xml:space="preserve">
<style type="text/css">
	.st0{fill:#FF5F0A;}
	.st1{fill:#FFFFFF;}
	.st2{fill:none;stroke:#FFFFFF;stroke-width:13;stroke-miterlimit:10;}
	.st3{fill:none;stroke:#FFFFFF;stroke-width:11;stroke-miterlimit:10;}
	.st4{fill:none;stroke:#FFFFFF;stroke-width:12;stroke-miterlimit:10;}
	.st5{fill:none;stroke:#FFFFFF;stroke-width:10;stroke-miterlimit:10;}
	.st6{fill:none;stroke:#FFFFFF;stroke-width:9;stroke-miterlimit:10;}
	.st7{fill:none;stroke:#FFFFFF;stroke-width:6.06;stroke-miterlimit:10;}
	.st8{fill:#FF5F0A;stroke:#FF5F0A;stroke-width:15;stroke-miterlimit:10;}
	.st9{fill:#FF5F0A;stroke:#FFBE9B;stroke-width:15;stroke-miterlimit:10;}
	.st10{fill:none;stroke:#FFCD32;stroke-width:15.8;stroke-miterlimit:10;}
	.st11{fill:none;stroke:#FFF0AF;stroke-width:15.8;stroke-miterlimit:10;}
	.st12{fill:none;stroke:#E6E6E6;stroke-width:15.8;stroke-miterlimit:10;}
	.st13{fill:#23C3FF;}
	.st14{fill:#00BE5F;}
	.st15{fill:#9BE5BE;}
</style>
<g id="Cheatsheet">
</g>
<g id="WorkSheet">
	<g>
		<path class="st1" d="M23.53,26.96c4.34,0,7.87,3.53,7.87,7.87s-3.53,7.87-7.87,7.87s-7.87-3.53-7.87-7.87S19.2,26.96,23.53,26.96
			 M23.53,20.91c-7.69,0-13.92,6.23-13.92,13.92s6.23,13.92,13.92,13.92s13.92-6.23,13.92-13.92S31.22,20.91,23.53,20.91
			L23.53,20.91z"/>
		<path class="st1" d="M71.31,27.22c4.34,0,7.87,3.53,7.87,7.87h6.05c0-7.69-6.23-13.92-13.92-13.92l0,0
			c-7.69,0-13.92,6.23-13.92,13.92h6.05C63.44,30.75,66.97,27.22,71.31,27.22"/>
		<path class="st1" d="M93.1,27.22c4.34,0,7.87,3.53,7.87,7.87h6.05c0-7.69-6.23-13.92-13.92-13.92l0,0
			c-7.69,0-13.92,6.23-13.92,13.92h6.05C85.23,30.75,88.76,27.22,93.1,27.22"/>
		<line class="st6" x1="47.37" y1="11.18" x2="47.37" y2="48.7"/>
		<line class="st7" x1="34.47" y1="21.58" x2="34.47" y2="48.81"/>
		<line class="st7" x1="60.43" y1="21.47" x2="60.43" y2="48.7"/>
		<line class="st7" x1="82.24" y1="34.87" x2="82.24" y2="48.79"/>
		<line class="st7" x1="104" y1="34.87" x2="104" y2="48.79"/>
		<line class="st6" x1="116.64" y1="21.34" x2="116.64" y2="48.57"/>
		<circle class="st1" cx="116.67" cy="14.57" r="4.63"/>
	</g>
</g>
</svg>
