<?xml version="1.0" encoding="utf-8"?>
<!-- Generator: Adobe Illustrator 26.0.1, SVG Export Plug-In . SVG Version: 6.00 Build 0)  -->
<svg version="1.1" xmlns="http://www.w3.org/2000/svg" xmlns:xlink="http://www.w3.org/1999/xlink" x="0px" y="0px"
	 viewBox="0 0 205.36 84.77" style="enable-background:new 0 0 205.36 84.77;" xml:space="preserve">
<style type="text/css">
	.st0{fill:#FF5F0A;}
	.st1{fill:#FFFFFF;}
	.st2{fill:none;stroke:#FFFFFF;stroke-width:13;stroke-miterlimit:10;}
	.st3{fill:none;stroke:#FFFFFF;stroke-width:11;stroke-miterlimit:10;}
	.st4{fill:none;stroke:#FFFFFF;stroke-width:12;stroke-miterlimit:10;}
	.st5{fill:none;stroke:#FFFFFF;stroke-width:10;stroke-miterlimit:10;}
	.st6{fill:#FF5F0A;stroke:#FF5F0A;stroke-width:15;stroke-miterlimit:10;}
	.st7{fill:#FF5F0A;stroke:#FFBE9B;stroke-width:15;stroke-miterlimit:10;}
	.st8{fill:none;stroke:#FFCD32;stroke-width:15.8;stroke-miterlimit:10;}
	.st9{fill:none;stroke:#FFF0AF;stroke-width:15.8;stroke-miterlimit:10;}
	.st10{fill:none;stroke:#E6E6E6;stroke-width:15.8;stroke-miterlimit:10;}
	.st11{fill:#23C3FF;}
	.st12{fill:#00BE5F;}
	.st13{fill:#9BE5BE;}
</style>
<g id="Cheatsheet">
</g>
<g id="WorkSheet">
	<g>
		<path class="st1" d="M32.59,38.69c7.17,0,13,5.83,13,13s-5.83,13-13,13s-13-5.83-13-13S25.42,38.69,32.59,38.69 M32.59,28.69
			c-12.7,0-23,10.3-23,23s10.3,23,23,23s23-10.3,23-23S45.29,28.69,32.59,28.69L32.59,28.69z"/>
		<line class="st2" x1="72.09" y1="12.19" x2="72.09" y2="74.19"/>
		<line class="st3" x1="50.59" y1="29.19" x2="50.59" y2="74.19"/>
		<line class="st3" x1="94.09" y1="29.19" x2="94.09" y2="74.19"/>
		<line class="st4" x1="128.59" y1="51.19" x2="128.59" y2="74.19"/>
		<line class="st3" x1="163.09" y1="51.19" x2="163.09" y2="74.19"/>
		<line class="st2" x1="184.09" y1="29.19" x2="184.09" y2="74.19"/>
		<path class="st5" d="M93.84,51.44c0-9.53,7.56-17.25,16.88-17.25s16.88,7.72,16.88,17.25"/>
		<path class="st3" d="M128.99,51.19c0-9.29,7.63-16.81,17.05-16.81s17.05,7.53,17.05,16.81"/>
		<circle class="st1" cx="183.36" cy="17.79" r="7.64"/>
	</g>
</g>
</svg>
