<?xml version="1.0" encoding="utf-8"?>
<!-- Generator: Adobe Illustrator 26.0.2, SVG Export Plug-In . SVG Version: 6.00 Build 0)  -->
<svg version="1.1" xmlns="http://www.w3.org/2000/svg" xmlns:xlink="http://www.w3.org/1999/xlink" x="0px" y="0px"
	 viewBox="0 0 182.64 66.3" style="enable-background:new 0 0 182.64 66.3;" xml:space="preserve">
<style type="text/css">
	.st0{fill:#CD9BD7;}
	.st1{fill:#00BE5F;stroke:#000000;stroke-miterlimit:10;}
	.st2{fill:#FF5F0A;}
	.st3{fill:#FFFFFF;}
	.st4{fill:none;stroke:#FFFFFF;stroke-width:13;stroke-miterlimit:10;}
	.st5{fill:none;stroke:#FFFFFF;stroke-width:11;stroke-miterlimit:10;}
	.st6{fill:none;stroke:#FFFFFF;stroke-width:12;stroke-miterlimit:10;}
	.st7{fill:none;stroke:#FFFFFF;stroke-width:10;stroke-miterlimit:10;}
	.st8{fill:none;stroke:#FFFFFF;stroke-width:9;stroke-miterlimit:10;}
	.st9{fill:none;stroke:#FFFFFF;stroke-width:6.06;stroke-miterlimit:10;}
	.st10{fill:#FF5F0A;stroke:#FF5F0A;stroke-width:15;stroke-miterlimit:10;}
	.st11{fill:#FF5F0A;stroke:#FFBE9B;stroke-width:15;stroke-miterlimit:10;}
	.st12{fill:#FFFFFF;stroke:#FFFFFF;stroke-width:5;stroke-miterlimit:10;}
	.st13{fill:#FF5F0A;stroke:#FFFFFF;stroke-width:5;stroke-miterlimit:10;}
	.st14{fill:#FFFFFF;stroke:#E6E6E6;stroke-width:5;stroke-miterlimit:10;}
	.st15{fill:#FF5F0A;stroke:#E6E6E6;stroke-width:5;stroke-miterlimit:10;}
	.st16{fill:#FFFFFF;stroke:#AAE6FF;stroke-width:5;stroke-miterlimit:10;}
	.st17{fill:#FF5F0A;stroke:#AAE6FF;stroke-width:5;stroke-miterlimit:10;}
	.st18{fill:#FFFFFF;stroke:#9BE5BE;stroke-width:5;stroke-miterlimit:10;}
	.st19{fill:#FF5F0A;stroke:#9BE5BE;stroke-width:5;stroke-miterlimit:10;}
	.st20{fill:none;stroke:#FFCD32;stroke-width:15.8;stroke-miterlimit:10;}
	.st21{fill:none;stroke:#FFF0AF;stroke-width:15.8;stroke-miterlimit:10;}
	.st22{fill:none;stroke:#E6E6E6;stroke-width:10;stroke-miterlimit:10;}
	.st23{fill:#23C3FF;}
	.st24{fill:#00BE5F;}
	.st25{fill:#9BE5BE;}
	.st26{fill:#FFCD32;}
	.st27{fill:#AAE6FF;}
	.st28{fill:none;}
</style>
<g id="Cheatsheet">
</g>
<g id="WorkSheet">
	<g>
		<path class="st3" d="M23.77,29.12c7.17,0,13,5.83,13,13s-5.83,13-13,13s-13-5.83-13-13S16.6,29.12,23.77,29.12 M23.77,19.12
			c-12.7,0-23,10.3-23,23s10.3,23,23,23s23-10.3,23-23S36.47,19.12,23.77,19.12L23.77,19.12z"/>
		<line class="st4" x1="63.27" y1="2.62" x2="63.27" y2="64.62"/>
		<line class="st5" x1="41.77" y1="19.62" x2="41.77" y2="64.62"/>
		<line class="st5" x1="85.27" y1="19.62" x2="85.27" y2="64.62"/>
		<line class="st6" x1="119.77" y1="41.62" x2="119.77" y2="64.62"/>
		<line class="st5" x1="154.27" y1="41.62" x2="154.27" y2="64.62"/>
		<line class="st4" x1="175.27" y1="19.62" x2="175.27" y2="64.62"/>
		<path class="st7" d="M85.02,41.87c0-9.53,7.56-17.25,16.88-17.25s16.88,7.72,16.88,17.25"/>
		<path class="st5" d="M120.17,41.62c0-9.29,7.63-16.81,17.05-16.81s17.05,7.53,17.05,16.81"/>
		<circle class="st3" cx="174.54" cy="8.22" r="7.64"/>
	</g>
</g>
</svg>
